<?xml version="1.0" encoding="UTF-8"?><svg xmlns="http://www.w3.org/2000/svg" viewBox="0 0 47.06 47.05"><defs><style>.e{fill:#222;isolation:isolate;opacity:.95;}</style></defs><g id="a"/><g id="b"><g id="c"><path id="d" class="e" d="M0,23.48c0-4.85,1.5-9.58,4.31-13.54-1.26-2.29-.43-5.16,1.86-6.43,2.29-1.26,5.16-.43,6.43,1.86s.43,5.16-1.86,6.43c-1.55,.86-3.45,.77-4.92-.21-2.39,3.51-3.67,7.65-3.68,11.9,0,11.82,9.57,21.4,21.39,21.42,3.49-.01,6.92-.89,9.99-2.56-.47-.85-.71-1.8-.72-2.76,0-3.24,2.63-5.87,5.87-5.88,1.1,0,2.18,.32,3.11,.91,6.16-10.07,3-23.23-7.07-29.39-2.34-1.43-4.93-2.4-7.64-2.85l-1.85-2.38c12.95,.91,22.7,12.15,21.78,25.09-.28,3.91-1.53,7.7-3.64,11,1.95,2.57,1.45,6.24-1.12,8.19-2.19,1.66-5.24,1.57-7.33-.22-3.47,1.95-7.39,2.98-11.38,2.99C10.53,47.03,0,36.48,0,23.48Zm34.94,16.11c0,2.06,1.67,3.73,3.73,3.72,2.06,0,3.73-1.67,3.72-3.73,0-2.06-1.67-3.72-3.73-3.72-2.06,0-3.73,1.67-3.73,3.73h0ZM13.61,2.14c.52-.24,1.04-.47,1.58-.67l1.38,1.77c-.55,.19-1.09,.39-1.62,.62l-1.35-1.73Zm4.51-1.57c1.14-.27,2.31-.46,3.48-.56l1.61,2.06c-1.22,.02-2.43,.14-3.62,.37l-1.46-1.87Z"/></g></g></svg>