<?xml version="1.0" encoding="UTF-8"?><svg xmlns="http://www.w3.org/2000/svg" viewBox="0 0 67.81 67.81"><defs><style>.d{fill:#222;}</style></defs><g id="a"/><g id="b"><g id="c"><g><circle class="d" cx="14.28" cy="8.77" r="7.62"/><g><path class="d" d="M39.82,2.35c-.16-.65-.34-1.29-.55-1.93-1.75-.28-3.54-.43-5.36-.43-.92,0-1.83,.05-2.73,.12,.27,.57,.52,1.15,.74,1.75,.66-.04,1.32-.07,1.99-.07,2.02,0,3.99,.2,5.91,.55Z"/><path class="d" d="M26.91,.73c-1.24,.26-2.45,.59-3.63,.99,.35,.5,.67,1.03,.95,1.58,1.16-.37,2.34-.67,3.55-.9-.25-.58-.55-1.13-.87-1.66Z"/><path class="d" d="M43.76,1.46c.16,.67,.3,1.35,.42,2.03,12.68,4.29,21.84,16.3,21.84,30.41,0,7.59-2.66,14.56-7.08,20.06,.04,.52,.32,1.25,.71,1.96,5.08-5.93,8.17-13.62,8.17-22.02,0-15.27-10.15-28.21-24.06-32.44Z"/><path class="d" d="M33.91,66.01C16.2,66.01,1.8,51.61,1.8,33.91,1.8,21.02,9.44,9.88,20.43,4.78c-.3-.54-.66-1.03-1.07-1.49C7.92,8.74,0,20.42,0,33.91c0,18.7,15.21,33.91,33.91,33.91,5.57,0,10.82-1.36,15.47-3.75-.4-.43-.75-.91-.99-1.52-4.35,2.21-9.27,3.46-14.48,3.46Z"/></g><path class="d" d="M54.21,67.6c-4.38,0-7.95-3.57-7.95-7.95s3.57-7.95,7.95-7.95,7.95,3.57,7.95,7.95-3.57,7.95-7.95,7.95Zm0-14.11c-3.39,0-6.15,2.76-6.15,6.15s2.76,6.15,6.15,6.15,6.15-2.76,6.15-6.15-2.76-6.15-6.15-6.15Z"/></g></g></g></svg>