<?xml version="1.0" encoding="UTF-8"?><svg xmlns="http://www.w3.org/2000/svg" viewBox="0 0 53.26 58.07"><defs><style>.d{fill:#ffec00;}.e{fill:#1d1e1c;}</style></defs><g id="a"/><g id="b"><g id="c"><g><path class="d" d="M43.49,10.01c-3.11-3.25-7.47-4.02-11.79-3.89-6.04,.18-12.13,.87-17.25,4.39-5,3.43-8.32,9.01-9.42,14.93-2.74,14.77,8.08,27.51,21.41,32.26,3.44,.81,7.1,.32,10.36-1.1,6.05-2.78,10.68-8.48,11.83-15.1,.73-5.55-.96-10.98-.32-16.6-.22-5.31-.97-10.87-4.82-14.88Z"/><path class="e" d="M36.42,39.73c-2.65,2.78-6.76,3.86-10.43,2.74-1.24-.37-1.77,1.56-.53,1.93,4.33,1.31,9.26,.01,12.38-3.26,.89-.93-.52-2.35-1.42-1.42h0Z"/><path class="e" d="M52.11,15.53c-.81-.76-1.69-1.4-2.62-1.94,.45-1.07,.49-2.34-.17-3.48-1.27-2.21-3.33-3.52-5.64-4.33-2.19-1.14-4.57-1.94-7.05-2.48-3.02-1.29-6.18-2.17-9.56-2.12-2.8,.04-5.7,.65-8.39,1.39-.47,.13-.94,.29-1.41,.45-1.22,.27-2.43,.63-3.61,1.07-.19-.49-.45-.96-.74-1.39C12.07,1.39,10.81-.23,9.04,.03c-.45,.06-.98,.47-.87,1,.34,1.71,1.06,3.29,2.07,4.68C5.31,8.54,1.74,13.16,2.21,19.59c.03,.4,.12,.75,.24,1.07-.02,.86,.07,1.71,.27,2.56-.55,.49-1.11,.97-1.65,1.5-3.44,3.39,2.23,8.3,5.64,4.93,.73-.72,1.5-1.4,2.28-2.05,.38-.2,.75-.45,1.06-.78,.05-.05,.1-.09,.15-.14,4.91-3.68,10.68-5.94,16.84-6.83,3.84-.55,7.79-.95,11.67-1.05,.99-.02,1.99,0,2.97,.1,2.16,.7,4.28,1.62,6.3,2.8,3.79,2.23,7.11-3.36,4.13-6.18Z"/><path class="e" d="M35.38,32.42c.16-.11,.33-.2,.5-.29,.11-.06-.24,.09-.04,.02,.04-.01,.08-.03,.11-.04,.09-.03,.17-.05,.26-.08,.1-.02,.2-.04,.3-.06,.13-.02-.22,.02-.09,.01,.05,0,.1,0,.15-.01,.19-.01,.38,0,.58,.01,.03,0,.18,.02,.02,0-.17-.02,0,0,.05,.01,.09,.02,.18,.04,.27,.06s.17,.05,.26,.08c.02,0,.21,.08,.05,.02s.01,0,.05,.02c.16,.08,.32,.17,.47,.28,.17,.11-.12-.11-.03-.03,.04,.03,.08,.06,.11,.1,.08,.07,.15,.14,.21,.21,.36,.39,1.06,.39,1.42,0,.38-.41,.38-1.01,0-1.42-1.4-1.51-3.95-1.82-5.64-.64-.43,.3-.67,.89-.36,1.37,.28,.43,.91,.68,1.37,.36h0Z"/><path class="e" d="M19.91,34.13c.1-.14-.11,.13-.03,.04,.03-.04,.06-.07,.09-.11,.06-.07,.12-.13,.18-.19,.04-.03,.07-.07,.11-.1,.03-.02,.17-.13,.03-.03s.02-.01,.04-.02c.03-.02,.06-.04,.1-.06,.08-.05,.17-.1,.25-.15,.08-.04,.37-.14,.08-.05,.18-.06,.35-.13,.53-.17,.09-.02,.17-.04,.26-.05,.18-.03-.19,.02-.06,0,.05,0,.1,0,.15-.01,.18-.01,.37,0,.55,0,.08,0,.2,.06-.06-.01,.04,0,.08,.01,.11,.02,.1,.02,.19,.04,.28,.07s.18,.07,.28,.09c-.04,0-.2-.09-.08-.03,.05,.03,.11,.05,.16,.08,.46,.24,1.11,.13,1.37-.36,.24-.46,.14-1.11-.36-1.37-.97-.51-2.07-.63-3.13-.38s-1.95,.88-2.58,1.76c-.31,.43-.09,1.13,.36,1.37,.52,.27,1.04,.1,1.37-.36h0Z"/></g></g></g></svg>