<?xml version="1.0" encoding="UTF-8"?><svg xmlns="http://www.w3.org/2000/svg" viewBox="0 0 66.4 58.07"><defs><style>.d{fill:#ffec00;}.e{fill:#1d1e1c;}</style></defs><g id="a"/><g id="b"><g id="c"><g><path class="d" d="M63.87,27.21c-1.64-2.36-4.75-3.94-5.55-6.75-.89-3.12-1.4-6.1-3.15-8.92-3.32-5.34-9.03-9.37-15.24-10.47-3.9-.69-8.25-.54-11.84,1.35-.86,.15-1.71,.53-2.5,1.25C15.81,12.54,9.16,26.98,13.99,40.09c2.19,5.94,6.11,11.16,11.54,14.51,6.1,3.76,13.46,4.25,20.3,2.5,6.68-1.71,13.21-5.28,17.27-10.96,3.83-5.36,4.62-13.36,.76-18.93Z"/><g><path class="e" d="M48.32,3.14c-2.15-2.1-5.97-2.7-8.83-3-5.9-.63-12.1,1.06-17.07,4.24-5.46,3.5-9.7,8.59-12.76,14.27-.9,1.67-.51,3.4,.52,4.57-.03,.78,.17,1.57,.55,2.26-.43,.39-.83,.83-1.28,1.2-.28,.23-.57,.45-.85,.69,.91-.78-.11,.08-.36,.25-.66,.48-1.33,.93-2.01,1.36-1.37,.87-2.8,1.65-4.27,2.34-1.89,.89-2.52,3.75-1.43,5.45,1.25,1.94,3.43,2.38,5.45,1.43,6.58-3.1,12.16-7.95,16.39-13.83,.15-.2,.26-.45,.34-.71,8.06-3.56,16.72-5.94,23.87-11.23,2.99-2.21,4.88-6.23,1.74-9.28Z"/><path class="e" d="M50.57,32.39c-1.58,1.75-4.01,1.76-6.16,1.27-1.79-.4-3.93-1.7-5.72-.74-1.93,1.04-3.59,2.29-5.71,2.97-2.16,.69-4.35,.83-6.51,.07-1.21-.43-1.73,1.5-.53,1.92,4.55,1.6,9.32-.3,13.13-2.83,.56-.37,.92-.56,1.59-.39,.64,.16,1.27,.39,1.91,.58,1.24,.36,2.52,.65,3.81,.7,2.07,.07,4.18-.57,5.6-2.14,.86-.95-.55-2.36-1.41-1.41Z"/><path class="e" d="M45.48,26.97l-.53-.07c-.36,0-.69,.09-1,.27l-.4,.31c-.25,.25-.42,.54-.51,.88l-.06,.25c-.08,.26-.09,.53-.04,.79,.01,.27,.09,.51,.24,.74,.13,.23,.3,.42,.51,.56,.19,.18,.42,.29,.68,.36l.53,.07c.36,0,.69-.09,1-.27,.13-.1,.27-.21,.4-.31,.25-.25,.42-.54,.51-.88l.06-.25c.08-.26,.09-.53,.04-.79-.01-.26-.09-.51-.24-.74-.13-.23-.3-.42-.51-.56-.19-.18-.42-.29-.68-.36Z"/><path class="e" d="M32.9,28.65c-.16-.21-.37-.36-.62-.47-.23-.12-.48-.17-.73-.16-.26-.03-.51,0-.75,.1-.15,.08-.31,.16-.46,.24-.29,.21-.5,.47-.64,.79l-.14,.48c-.05,.34-.02,.68,.1,1.01l.1,.24c.09,.26,.23,.48,.43,.67,.16,.21,.37,.36,.62,.47,.23,.12,.48,.17,.73,.16,.26,.03,.51,0,.75-.1,.15-.08,.31-.16,.46-.24,.29-.21,.5-.47,.64-.79,.05-.16,.09-.32,.14-.48,.05-.34,.02-.68-.1-1.01l-.1-.24c-.09-.26-.23-.48-.43-.67Z"/></g></g></g></g></svg>