<?xml version="1.0" encoding="UTF-8"?><svg xmlns="http://www.w3.org/2000/svg" viewBox="0 0 49.19 58.07"><defs><style>.d{fill:#ffec00;}.e{fill:#1d1e1c;}</style></defs><g id="a"/><g id="b"><g id="c"><g><path class="d" d="M47.11,18.56c-2-5.4-5.05-10.78-9.62-14.41C32.86,.47,27.13-.69,21.36,.38,10.81,2.35,2.98,11.26,1.01,21.45c-1.71,8.85-1.16,14.8,1,20.04s5.77,12.22,13.11,15.02c9.28,3.55,20.04,.91,26.67-6.49,7.67-8.57,9.27-20.79,5.33-31.45Z"/><g><path class="e" d="M19.42,27.67s-.02,.01-.04,.02c-.29,.31-.53,.66-.73,1.04-.2,.25-.31,.55-.34,.88-.24,.81-.27,1.68-.03,2.51,.18,.62,.88,.89,1.44,.58,1.79-.96,2.44-3.43,1.42-5.17-.41-.69-1.43-.57-1.73,.14Zm-.41,3.17c-.05,.04-.12,.08,0,0h0Z"/><path class="e" d="M34.21,27.21c.07-.12,.14-.23,.19-.36,.17-.36,.25-.77,.24-1.15-.01-.41-.11-.78-.29-1.15-.18-.37-.46-.64-.78-.88-.08-.03-.16-.07-.23-.1-.13-.04-.26-.05-.39-.02-.12,.02-.21,.1-.31,.15-.03,0-.06-.02-.1-.02-.24,.01-.54,.09-.69,.29-.24,.31-.45,.64-.52,1.03-.07,.4-.07,.78,.03,1.18,.15,.59,.55,1.18,1.1,1.49,0,0,.01,.02,.02,.03,.39,.36,1,.39,1.38,0,.13-.13,.21-.29,.31-.44,.01-.02,.03-.04,.04-.06Z"/></g><path class="e" d="M40.19,29.61c-.79-.54-1.69-.36-2.52-.03-1.19,.48-2.36,1.01-3.55,1.49-5.4,2.16-10.94,3.94-16.57,5.35-.59,.15-.77,.66-.66,1.12-.54-.29-1.46-.03-1.56,.81-.47,3.79,2.54,7.16,6.02,8.19,4.35,1.29,9.08-.71,12.64-3.15,1.93-1.32,3.75-2.98,5.1-4.93,.05-.03,.1-.05,.14-.1,.14-.15,.21-.32,.24-.49,.73-1.18,1.3-2.45,1.59-3.82,.31-1.44,.54-3.48-.86-4.45Zm-2.39,2.03c.29-.12,.87-.51,1.2-.42,.35,.1,.33,.69,.33,1.01,0,1.28-.37,2.52-.95,3.66-.89-1.13-1.77-2.26-2.66-3.38,.7-.29,1.39-.58,2.08-.87Zm-10.1,11.74c-1.22-2.23-1.92-4.7-2.09-7.23,1.01-.32,2.03-.64,3.03-.98,0,.03,0,.06,0,.08,.93,2.32,1.87,4.65,2.8,6.97,.05,.13,.13,.25,.22,.36-1.27,.77-2.64,1.41-4.05,1.84,.21-.27,.29-.64,.07-1.03Zm-3.16,1.57c-3.69,.13-7.78-2.51-7.26-6.61,0-.07-.01-.13-.02-.2,.21,.16,.48,.24,.8,.16,1.89-.47,3.78-.99,5.65-1.55,.25,2.67,1.01,5.26,2.3,7.61,.09,.17,.22,.28,.35,.36-.6,.12-1.21,.21-1.82,.23Zm10.02-4.45c-.41,.35-.84,.68-1.29,1.01-.91-2.26-1.82-4.53-2.73-6.79-.03-.07-.07-.13-.11-.19,1.15-.41,2.29-.85,3.43-1.3,.04,.09,.09,.18,.15,.26,1.09,1.38,2.17,2.77,3.26,4.15-.81,1.08-1.76,2.05-2.72,2.86Z"/><path class="e" d="M42.97,12.78c-.61-1.1-2.3-.12-1.69,.99,.38,.68-.96,1.13-1.4,1.16-.94,.05-1.88-.45-2.67-.89-1.4-.76-2.73-1.47-4.36-1.48-1.01,0-1.27,1.3-.49,1.82,1.5,1,2.53,2.39,3.06,4.06-5.78,3.01-12.13-.82-16.91-4.13-.57-.39-1.56,.12-1.47,.85,.18,1.43-.01,2.84-.66,4.14-.58,1.17-2.01,3.33-3.55,3.07-1.52-.25-2.62-2.19-3.15-3.48-.56-1.39-.73-2.92-.51-4.39,.18-1.23-1.7-1.76-1.89-.52-.32,2.14-.08,4.23,.84,6.2,.86,1.84,2.41,3.87,4.57,4.14,2.06,.26,3.73-1.49,4.8-3.05,.87-1.27,1.38-2.75,1.52-4.27,5.37,3.5,12.04,6.53,18.08,2.77,.39-.24,.54-.67,.45-1.11-.23-1.1-.69-2.08-1.26-2.98,1.29,.69,2.58,1.39,4.14,1.15,1.86-.28,3.6-2.18,2.56-4.06Z"/></g></g></g></svg>