<?xml version="1.0" encoding="UTF-8"?><svg xmlns="http://www.w3.org/2000/svg" viewBox="0 0 60.01 58.07"><defs><style>.d{fill:#ffec00;}.e{fill:#1d1e1c;}</style></defs><g id="a"/><g id="b"><g id="c"><g><path class="d" d="M35.19,.32c-1.39-.18-2.88-.39-4.3-.3C20.26,.04,7.69,5.5,5.24,16.08c-.17,.73-.44,1.43-.74,2.12-1.08,2.46-1.21,5.62-.94,7.93,.5,4.31,2.16,8.24,3.94,12.17,3.39,7.51,8.28,14.96,16.16,18.26,17.38,7.25,30.95-13.13,32.53-27.96C57.19,15.34,48.8,2.42,35.19,.32Z"/><g><path class="e" d="M36.44,26.46c-.12,.09-.22,.19-.3,.31-.15,.05-.29,.12-.39,.25-1.32,1.66-2.17,3.78-2.09,5.89l-2.36,.08s-.1,.02-.15,.03c.02-.76-.03-1.52-.16-2.27-.64-3.63-3.9-6.66-7.72-5.87-.46,.09-.68,.41-.73,.76-.13,.02-.26,.06-.37,.14-2.53,1.92-4.6,4.59-4.99,7.83-.35,2.95,1.12,6.14,3.79,7.56,2.68,1.43,5.8,.53,7.73-1.7,1.11-1.29,1.84-2.84,2.2-4.48,.12,.05,.26,.08,.4,.08l2.75-.09c.89,2.49,3.11,4.4,5.75,4.71,2.42,.29,5.1-1.04,6.16-3.28,1.19-2.53,.14-6-1.48-8.14-1.81-2.38-5.41-3.72-8.05-1.81Zm-8.86,11.09c-1.17,1.66-3.21,2.81-5.23,1.98-1.98-.81-3.21-3.05-3.16-5.14,.06-2.76,1.9-5.22,4.02-6.83,.24-.18,.41-.43,.47-.69,.04,0,.08,0,.13,0,2.46-.51,4.48,1.61,5.04,3.82,.59,2.32,.09,4.91-1.28,6.86Zm16.71-2.58c-.44,1.65-2.22,2.69-3.86,2.68-1.82,0-3.44-1.26-4.22-2.85-.14-.28-.24-.58-.32-.88,0,0,0-.01,0-.02,0-.07-.03-.13-.04-.19-.39-1.81,.23-3.81,1.36-5.23,.04-.05,.06-.11,.09-.16,.06-.02,.12-.03,.18-.07,1.59-1.15,3.71-.54,4.97,.81,.68,.72,1.15,1.64,1.46,2.58,.35,1.04,.66,2.25,.38,3.34Z"/><path class="e" d="M35.94,41.64c-.53-.12-1.15,.16-1.28,.72-.04,.16-.09,.32-.14,.48-.01,.03-.01,.04-.02,.06,0,0,0,0-.01,.02-.03,.08-.07,.15-.11,.22-.08,.15-.17,.29-.26,.42-.01,.02-.03,.04-.04,.06-.05,.07-.11,.13-.17,.2-.1,.11-.21,.21-.32,.31-.05,.04-.18,.14-.06,.05-.07,.05-.14,.1-.21,.14-.08,.05-.16,.09-.24,.14l-.1,.05c.06-.02,.06-.02,0,0-.09,.03-.18,.05-.26,.08l-.1,.02c-.53,.04-1.01-.18-1.4-.54-.51-.47-.79-.99-1.13-1.68-.24-.49-.97-.66-1.42-.37-.5,.32-.63,.9-.37,1.42,.84,1.68,2.34,3.45,4.43,3.24,1.95-.2,3.51-1.93,3.93-3.77,.12-.53-.16-1.15-.72-1.28Z"/><path class="e" d="M57.06,6.32c-3.9-2.79-10.54-2.54-12.33,2.51-.76,2.15-.82,5.47,1.59,6.63,1.84,.88,4.24-.24,4.33-2.35,.06-1.33-2.02-1.33-2.07,0-.03,.57-.92,.67-1.33,.49-.8-.35-.94-1.48-.92-2.24,.05-2.03,1.13-4.06,3.21-4.54,3.39-.79,8.02,.86,8.41,4.75,.4,3.93-2.88,6.74-6.41,7.58-4.07,.97-8.3-.37-12.13-1.72-4.31-1.51-8.44-3.44-12.4-5.71,.14-1.18-1.68-1.64-2.01-.4-1.15,4.37-3.95,8.03-7.24,11.04-1.45,1.32-3,2.52-4.64,3.61-.73,.49-1.5,1.08-2.35,1.31-.99,.26-1.98,.07-2.83-.47-.05-.76-.06-1.53-.02-2.3,.08-1.33-2-1.33-2.07,0-.22,3.75,.76,7.4,1.78,10.97,.85,2.97,1.94,6.04,1.96,9.16,0,.84,.04,1.87-.68,2.44-.6,.47-1.43,.69-2.17,.78-1.75,.2-3.84-.37-4.41-2.22-.45-1.46-.39-3.81,1.32-4.42,.53-.19,1.28-.18,1.48,.45,.1,.32,0,1.04-.41,1.07-1.33,.09-1.34,2.16,0,2.07,1.62-.11,2.6-1.52,2.51-3.1-.11-1.79-1.73-2.87-3.44-2.64-4,.52-4.76,6.11-2.55,8.84,1.76,2.18,5.15,2.53,7.64,1.54,1.09-.44,2.12-1.19,2.5-2.34,.6-1.8,.27-3.94-.06-5.76-.76-4.08-2.35-8.01-3.05-12.09,1.71,.49,3.57,.01,5.11-.96,1.86-1.17,3.63-2.49,5.29-3.94,3.32-2.9,6.21-6.46,7.76-10.6,4.92,2.78,10.16,5.12,15.59,6.69,5.09,1.48,11.2,1.88,15.35-2.05,3.44-3.26,3.77-9.18-.28-12.07Z"/></g></g></g></g></svg>