<?xml version="1.0" encoding="UTF-8"?><svg xmlns="http://www.w3.org/2000/svg" viewBox="0 0 72.53 71.39"><defs><style>.d{fill:#222;}</style></defs><g id="a"/><g id="b"><g id="c"><g><path class="d" d="M26.61,25.68c-4.38,0-7.95-3.57-7.95-7.95s3.57-7.95,7.95-7.95,7.95,3.57,7.95,7.95-3.57,7.95-7.95,7.95Zm0-14.11c-3.39,0-6.15,2.76-6.15,6.15s2.76,6.15,6.15,6.15,6.15-2.76,6.15-6.15-2.76-6.15-6.15-6.15Z"/><circle class="d" cx="48.03" cy="63.77" r="7.62"/><g><path class="d" d="M18.32,61.57H3.1L24.1,24.88c-.61-.01-1.17-.29-1.64-.75L0,63.37H18.25c0-.6,.03-1.2,.07-1.8Z"/><path class="d" d="M29.71,63.37c.01-.61,.05-1.21,.12-1.8h-7.45c-.05,.59-.08,1.19-.09,1.8h7.42Z"/><path class="d" d="M36.26,3.62l33.16,57.95h-27.74c-.16,.58-.26,1.18-.29,1.8h31.13L36.26,0l-6.81,11.91c.44,.44,.88,.88,1.32,1.32l5.49-9.6Z"/><path class="d" d="M33.9,61.57c-.08,.59-.13,1.19-.15,1.8h3.6c.02-.61,.08-1.21,.19-1.8h-3.65Z"/></g></g></g></g></svg>