<?xml version="1.0" encoding="UTF-8"?><svg xmlns="http://www.w3.org/2000/svg" viewBox="0 0 50.77 48.67"><defs><style>.e{fill:#222;isolation:isolate;opacity:.95;}</style></defs><g id="a"/><g id="b"><g id="c"><path id="d" class="e" d="M31.69,43.91c.01-2.64,2.17-4.78,4.81-4.76,1.92,.01,3.65,1.17,4.39,2.94h6.2L25.39,4.28l-2.53,4.4c2.35,2.18,2.49,5.84,.31,8.19-1.51,1.63-3.81,2.25-5.94,1.61L3.68,42.08h12.72v2.13H0L15.32,17.53c-2.56-1.95-3.05-5.6-1.1-8.16,1.6-2.1,4.41-2.86,6.86-1.85L25.39,0l25.39,44.21h-9.55c-.17,2.63-2.45,4.62-5.08,4.45-2.51-.17-4.45-2.24-4.46-4.75h0ZM15.12,12.9c0,2.05,1.65,3.72,3.7,3.73,2.05,0,3.72-1.65,3.73-3.7,0-2.05-1.65-3.72-3.7-3.73h-.01c-2.05,0-3.71,1.66-3.72,3.7Zm11.76,31.31v-2.13h1.43v2.13h-1.43Zm-6.91,0v-2.13h3.36v2.13h-3.36Z"/></g></g></svg>