<?xml version="1.0" encoding="UTF-8"?><svg xmlns="http://www.w3.org/2000/svg" viewBox="0 0 89.28 68.92"><defs><style>.d{fill:#222;}</style></defs><g id="a"/><g id="b"><g id="c"><g><path class="d" d="M7.95,60.38c-4.38,0-7.95-3.57-7.95-7.95s3.57-7.95,7.95-7.95,7.95,3.57,7.95,7.95-3.57,7.95-7.95,7.95Zm0-14.1c-3.39,0-6.15,2.76-6.15,6.15s2.76,6.15,6.15,6.15,6.15-2.76,6.15-6.15-2.76-6.15-6.15-6.15Z"/><circle class="d" cx="81.67" cy="7.62" r="7.62"/><g><path class="d" d="M63.62,7.62c0-.39,.01-.77,.04-1.16h-7.43c-.02,.38-.03,.77-.03,1.16,0,.22,.01,.43,.02,.64h7.42c0-.21-.02-.43-.02-.64Z"/><path class="d" d="M71.26,7.62c0-.39,.03-.78,.07-1.16h-3.62c-.03,.38-.05,.77-.05,1.16,0,.22,.02,.43,.03,.64h3.61c-.01-.21-.04-.43-.04-.64Z"/><path class="d" d="M23.39,8.26h28.78c0-.21-.01-.43-.01-.64,0-.39,.03-.77,.05-1.16H22.07L9.73,46.07c.56,.18,1.18,.29,1.73,.49L23.39,8.26Z"/><path class="d" d="M75.3,7.62c0,.22,.01,.43,.03,.64h7.57l-18.33,58.86H5.06l2.43-7.79c-.75-.01-1.32-.05-1.81-.23l-3.06,9.82h63.28L85.35,6.46h-9.96c-.05,.38-.09,.76-.09,1.16Z"/></g></g></g></g></svg>