<?xml version="1.0" encoding="UTF-8"?><svg xmlns="http://www.w3.org/2000/svg" viewBox="0 0 62.7 47.5"><defs><style>.e{fill:#222;isolation:isolate;opacity:.95;}</style></defs><g id="a"/><g id="b"><g id="c"><path id="d" class="e" d="M1.65,47.5l1.98-6.36c-3.02-1.28-4.44-4.76-3.16-7.78,1.1-2.61,3.89-4.07,6.66-3.51L15.3,3.54H53.22c.71-2.57,3.37-4.08,5.94-3.36,2.57,.71,4.08,3.37,3.36,5.94-.71,2.57-3.37,4.08-5.94,3.36-1.78-.49-3.12-1.96-3.46-3.78H16.9l-7.76,24.97c2.76,1.77,3.56,5.44,1.8,8.2-1.09,1.7-2.97,2.73-4.99,2.73-.07,0-.13-.02-.2-.02l-1.16,3.74H44.51l6.32-20.36,2.09,.56-6.82,21.96H1.65Zm.53-11.82c0,2.08,1.7,3.76,3.78,3.75,2.08,0,3.76-1.7,3.75-3.78,0-2.07-1.69-3.75-3.77-3.75-2.08,0-3.77,1.69-3.76,3.78h0Zm49.68-14.04l1.19-3.84,2.09,.56-1.19,3.84-2.09-.56Zm2.23-7.18l.63-2.03,2.09,.56-.63,2.04-2.09-.57Z"/></g></g></svg>