<?xml version="1.0" encoding="UTF-8"?><svg xmlns="http://www.w3.org/2000/svg" viewBox="0 0 68.66 68.66"><defs><style>.d{fill:#222;}</style></defs><g id="a"/><g id="b"><g id="c"><g><path class="d" d="M34.33,0C15.4,0,0,15.4,0,34.33s15.4,34.33,34.33,34.33c7.18,0,14.05-2.19,19.88-6.34,.41-.29,.5-.85,.21-1.25-.29-.4-.85-.5-1.25-.21-5.52,3.93-12.04,6-18.83,6C16.39,66.86,1.8,52.27,1.8,34.33S16.39,1.8,34.33,1.8s32.53,14.59,32.53,32.53c0,6.76-2.05,13.23-5.93,18.73-.29,.41-.19,.97,.22,1.25,.41,.28,.97,.19,1.25-.22,4.09-5.8,6.26-12.64,6.26-19.77C68.66,15.4,53.26,0,34.33,0Z"/><path class="d" d="M15.73,18.16c-.39-.31-.95-.25-1.27,.13-3.65,4.52-5.66,10.21-5.66,16.03,0,14.08,11.45,25.53,25.53,25.53s25.53-11.45,25.53-25.53-11.45-25.53-25.53-25.53c-3.47,0-6.83,.68-10,2.03-.46,.2-.67,.72-.48,1.18,.2,.46,.72,.67,1.18,.48,2.67-1.14,5.49-1.76,8.39-1.87v4c0,.5,.4,.9,.9,.9s.9-.4,.9-.9v-4c12.37,.47,22.34,10.44,22.81,22.81h-3.58c-.5,0-.9,.4-.9,.9s.4,.9,.9,.9h3.58c-.47,12.37-10.44,22.34-22.81,22.81v-3.66c0-.5-.4-.9-.9-.9s-.9,.4-.9,.9v3.66c-12.37-.47-22.34-10.44-22.81-22.81h4.08c.5,0,.9-.4,.9-.9s-.4-.9-.9-.9h-4.07c.2-5.09,2.02-10.03,5.22-14,.31-.39,.25-.95-.13-1.27Z"/><path class="d" d="M41.67,34.28h0l-6.94-16.26-7.73,16.26,7.66,16.36,7.01-16.36Zm-7.03-11.89l5.07,11.88h-10.72l5.65-11.88Z"/></g></g></g></svg>