<?xml version="1.0" encoding="UTF-8"?><svg xmlns="http://www.w3.org/2000/svg" viewBox="0 0 124.29 107.5"><defs><style>.n{fill:none;}.o{fill:#040506;}</style></defs><g id="a"/><g id="b"><g id="c"><path id="d" class="o" d="M24.09,105.99c-9.34,.71-17.5-6.26-18.26-15.59l-2.01-28.27c-.46-9.91,.74-13.9,1.62-16.81,.28-.85,.5-1.71,.66-2.59,.13-.84,.92-1.41,1.76-1.28,.83,.11,1.41,.88,1.3,1.71h0c-.17,1.03-.42,2.03-.75,3.01-.81,2.71-1.93,6.42-1.49,15.78l2,28.23c.7,7.74,7.54,13.45,15.28,12.75,4.92-.44,9.25-3.43,11.4-7.88l7.12-15c1.57-3.42,2.92-6.38,7.66-7.52l60.07-9.68c5.47-1.06,7.9-5.21,7.37-12.68l-.65-7.1c-.45-6.39-1.94-13.28-13.92-14.46-13.06-1.29-24.31-1.12-48.12,.78-14.2,1.19-28.19,4.11-41.68,8.7-.79,.3-1.68-.09-1.99-.88-.29-.78,.1-1.65,.88-1.95h.02c13.76-4.7,28.04-7.69,42.52-8.9,24.04-1.92,35.41-2.09,48.68-.78,15.57,1.54,16.33,12.14,16.69,17.24l.65,7.1c.81,11.41-4.93,14.95-9.9,15.91l-60,9.67c-3.16,.76-3.98,2.55-5.46,5.79l-.7,1.51-6.44,13.53c-2.68,5.56-8.14,9.24-14.3,9.65"/><path id="e" class="o" d="M32.64,73.95c-3.44,.26-6.45-2.31-6.73-5.75l-.17-2.34-2.38,.16c-3.41,.3-6.41-2.21-6.71-5.62-.3-3.41,2.21-6.41,5.62-6.71,.07,0,.14-.01,.22-.02l2.38-.16-.17-2.34c-.24-3.47,2.38-6.48,5.86-6.72,3.47-.24,6.48,2.38,6.72,5.86l.17,2.34,2.38-.16c3.41-.3,6.41,2.21,6.71,5.62,.3,3.41-2.21,6.41-5.62,6.71-.07,0-.14,.01-.22,.02l-2.38,.16,.17,2.34c.21,3.44-2.4,6.4-5.84,6.61h0m-9.94-17.25c-1.74,.09-3.08,1.57-2.99,3.31,.09,1.74,1.57,3.08,3.31,2.99,.04,0,.08,0,.12,0l5.46-.38,.38,5.37c.15,1.77,1.71,3.08,3.48,2.92,1.72-.15,3.02-1.64,2.93-3.36l-.38-5.37,5.46-.38c1.74-.09,3.08-1.57,2.99-3.31-.09-1.74-1.57-3.08-3.31-2.99-.04,0-.08,0-.12,0l-5.46,.38-.38-5.37c-.15-1.77-1.71-3.08-3.48-2.92-1.72,.15-3.02,1.64-2.93,3.36l.38,5.37-5.46,.38Z"/><path id="f" class="o" d="M91.18,44.63c.27,3.1-2.03,5.83-5.13,6.1-3.1,.27-5.83-2.03-6.1-5.13-.27-3.1,2.03-5.83,5.13-6.1h.08c3.07-.26,5.76,2.02,6.01,5.09v.05"/><path id="g" class="o" d="M108.83,43.42c.27,3.1-2.03,5.83-5.13,6.1-3.1,.27-5.83-2.03-6.1-5.13-.27-3.1,2.03-5.83,5.13-6.1h.08c3.07-.26,5.76,2.02,6.01,5.09v.05"/><path id="h" class="o" d="M93.6,33.24c1.38-.07,2.56,.99,2.63,2.37,.07,1.38-.99,2.56-2.37,2.63-1.36,.07-2.53-.96-2.63-2.32-.08-1.39,.98-2.58,2.36-2.67m-.21-3.03c-3.05,.27-5.3,2.96-5.03,6.01,.27,3.05,2.96,5.3,6.01,5.03,3-.27,5.24-2.89,5.03-5.89-.23-3.07-2.9-5.37-5.97-5.14h-.04"/><path id="i" class="o" d="M94.83,50.58c1.38-.07,2.56,.99,2.63,2.37,.07,1.38-.99,2.56-2.37,2.63-1.36,.07-2.53-.96-2.63-2.32-.08-1.39,.98-2.58,2.36-2.67m-.21-3.03c-3.05,.27-5.3,2.96-5.03,6.01,.27,3.05,2.96,5.3,6.01,5.03,3-.27,5.24-2.89,5.03-5.89-.23-3.07-2.9-5.37-5.97-5.14h-.05"/><path id="j" class="o" d="M54.94,25.02c-5.56,.29-5.13,4.46-5.13,4.46l5.43-.29,8.5-.67c-2.23-2.47-5.48-3.76-8.8-3.51"/><path id="k" class="o" d="M55.59,29.32c-.82,.06-1.55-.53-1.64-1.35-.39-3.63,.76-11.23,7.95-13.97,2.72-1.04,5.9-.98,9.27-.91,7.3,.14,14.21,.27,17.62-10.04,.28-.8,1.14-1.23,1.95-.97,.8,.25,1.24,1.09,1,1.89v.02c-4.12,12.44-13.27,12.26-20.63,12.13-3.05-.06-5.93-.11-8.09,.71-6.76,2.58-6.03,10.49-6,10.82,.08,.84-.53,1.58-1.37,1.66h-.06Z"/><path id="l" class="o" d="M117.16,67.25c-.63,.31-1.03,.97-1,1.67l1.16,16.28c.46,6.42-4.73,12.02-11.55,12.49-4.42,.35-8.7-1.65-11.26-5.27l-7.4-10.79c-2.05-2.99-8.86-6.91-11.78-7.44s-3.4,2.52-1.15,2.92c3.54,.64,8.57,3.58,10.37,6.21l7.4,10.79c3.19,4.52,8.52,7.02,14.04,6.6,8.53-.58,15-7.64,14.42-15.73,0,0-1.18-16.07-1.18-16.69-.18-.8-.97-1.31-1.77-1.14-.1,.02-.19,.05-.28,.09"/><rect id="m" class="n" x="3.32" y="3.97" width="117.65" height="99.55" transform="translate(-3.59 4.45) rotate(-3.99)"/></g></g></svg>