<?xml version="1.0" encoding="UTF-8"?><svg xmlns="http://www.w3.org/2000/svg" viewBox="0 0 82.26 70.34"><defs><style>.d{fill:#222;}</style></defs><g id="a"/><g id="b"><g id="c"><g><path class="d" d="M10.03,57.64c-.5,.04-.86,.48-.82,.98,.04,.47,.43,.82,.9,.82,.03,0,.05,0,.08,0,.04,0,.93-.08,2.3-.32,.49-.09,.82-.55,.73-1.04-.09-.49-.55-.81-1.04-.73-1.29,.23-2.14,.3-2.15,.3Z"/><path class="d" d="M21.51,54.11c-1.06,.65-2.31,1.24-3.7,1.75-.47,.17-.71,.69-.54,1.15,.13,.36,.48,.59,.85,.59,.1,0,.21-.02,.31-.05,1.51-.55,2.86-1.19,4.02-1.9,.42-.26,.56-.81,.3-1.24-.26-.42-.82-.56-1.24-.3Z"/><path class="d" d="M26.28,35.39c-.48-.11-.96,.2-1.07,.69-.19,.86-.28,1.76-.28,2.76,0,.55,.03,1.13,.09,1.77,.04,.47,.43,.82,.9,.82,.03,0,.05,0,.08,0,.49-.04,.86-.48,.82-.98-.05-.58-.08-1.11-.08-1.61,0-.86,.08-1.64,.23-2.38,.1-.49-.2-.96-.69-1.07Z"/><path class="d" d="M47.13,21.08c.11,.4,.47,.66,.87,.66,.08,0,.16,0,.24-.03,1.27-.34,2.61-.61,4.07-.81,.49-.07,.84-.52,.77-1.01-.07-.49-.52-.84-1.01-.77-1.55,.21-2.96,.49-4.31,.85-.48,.13-.76,.62-.63,1.1Z"/><path class="d" d="M31.81,27.75c-.6,.44-1.22,.9-1.86,1.38-.58,.44-1.11,.9-1.59,1.37-.35,.35-.36,.92,0,1.27,.18,.18,.41,.27,.64,.27s.46-.09,.63-.26c.42-.41,.89-.82,1.41-1.21,.63-.48,1.24-.93,1.84-1.36,.4-.29,.49-.86,.2-1.26-.29-.4-.86-.49-1.26-.2Z"/><path class="d" d="M25.76,51.5c.12,.05,.24,.08,.36,.08,.35,0,.67-.2,.82-.54,.45-1.01,.67-2.17,.67-3.53,0-.36-.02-.73-.04-1.1-.04-.49-.47-.86-.96-.83-.5,.04-.87,.47-.83,.96,.02,.33,.04,.65,.04,.97,0,1.1-.17,2.02-.51,2.8-.2,.46,0,.99,.46,1.19Z"/><path class="d" d="M34.57,35.36c2.06-3.84,4.36-7.48,6.64-11.14,2.84,2,5.73,3.93,8.81,5.64-2.27-2.77-4.98-5.08-7.87-7.17,1.95-3.14,3.88-6.32,5.61-9.65-2.7,2.6-4.99,5.55-7.06,8.66-2.65-1.74-5.49-3.29-8.61-3.98,2.6,1.79,5.12,3.64,7.65,5.46-.03,.04-.05,.08-.08,.12-2.25,3.74-4.4,7.69-5.1,12.05Z"/><path class="d" d="M38.22,43.17c-.31-.26-.79-.03-.78,.37l.43,25.38c0,.43,.54,.63,.83,.31l6.15-6.71,2.99,6.25c.38,.78,1.32,1.12,2.1,.74l.69-.33c.78-.38,1.12-1.32,.74-2.1l-2.99-6.25,9.08-.59c.43-.03,.6-.57,.27-.84l-19.51-16.23Z"/><path class="d" d="M79.33,8.31C75.44,4.43,64.22-.67,59.67,.07c-1.37,.22-1.97,.91-2.24,1.44-.69,1.37-.31,3.94,.2,6.91,.11,.64,.21,1.19,.26,1.6,.2,1.72,.48,4.7,.6,8.59-.59,.01-1.18,.02-1.73,.04-.5,.02-.89,.43-.87,.93,.02,.49,.42,.87,.9,.87h.03c.55-.02,1.13-.03,1.71-.04,.08,4.75-.11,10.62-.92,17.1-.39,3.15-1.4,10-1.82,12.8-.09,.62,.08,1.2,.49,1.64,.47,.51,1.2,.78,1.99,.73,.45-.02,1.15,.46,1.68,1.42,.31,.56,1.2,2.53-.27,4.6-.29,.4-.19,.97,.21,1.25,.4,.29,.97,.19,1.25-.21,1.4-1.97,1.54-4.41,.38-6.52-.83-1.49-2.13-2.42-3.36-2.34-.28,0-.47-.07-.56-.15-.02-.02-.05-.05-.03-.16,.52-3.48,1.44-9.79,1.82-12.84,1.65-13.19,.74-23.92,.27-27.92-.05-.43-.15-1.02-.27-1.7-.29-1.69-.84-4.84-.37-5.8,.12-.23,.42-.39,.92-.47,3.94-.64,14.61,4.24,18.1,7.73,3.71,3.71,2.03,7.31,1.96,7.46l-.07,.17c-.06,.24-6.51,24.37-11.58,38.25-2.36,6.47-6.59,8.32-8.57,8.59l.41,1.76c2.73-.44,7.32-2.82,9.84-9.73,4.96-13.57,11.2-36.81,11.61-38.33,.32-.71,2.01-5.09-2.34-9.44Z"/><path class="d" d="M9.81,66.31c-1.61,.83-3.14,1.62-4.66,2.13-.51,.17-.88,.11-1.24-.21-4.09-3.63-1.58-30.69,1.93-47.73,1.16-5.6,6.77-10.12,15.39-12.39,15.02-3.96,27.99,.53,28.11,.58,.46,.16,.98-.08,1.15-.55,.17-.47-.08-.98-.55-1.15-.55-.2-13.6-4.73-29.18-.62-9.31,2.45-15.39,7.47-16.69,13.77-2.36,11.43-7.07,44.39-1.37,49.44,.56,.5,1.22,.75,1.92,.75,.35,0,.71-.06,1.08-.19,1.65-.55,3.24-1.37,4.92-2.24,4.26-2.2,9.08-4.69,17.24-4.07,1.28,.1,2.48,.19,3.66,.28,.14-.63,.27-1.23,.4-1.77-1.26-.1-2.55-.2-3.92-.3-8.67-.66-13.96,2.07-18.2,4.27Z"/></g></g></g></svg>