<?xml version="1.0" encoding="UTF-8"?><svg xmlns="http://www.w3.org/2000/svg" viewBox="0 0 76.89 70.57"><defs><style>.d{fill:#222;}</style></defs><g id="a"/><g id="b"><g id="c"><g><path class="d" d="M76.86,34.44l-.08-4.03c0-3.6,0-11.1-10.68-12.93-8.42-1.44-13.52-1.93-27.34-1.85-.71-.44-1.59-.84-2.66-1.01,.36-1.91,1.44-4.71,4.69-5.72,1.59-.49,3.62-.31,5.78-.12,5.08,.45,11.41,1.02,14.86-7.53,.19-.46-.04-.99-.5-1.17-.46-.19-.99,.04-1.17,.5-2.95,7.31-8.08,6.85-13.04,6.41-2.33-.21-4.54-.4-6.47,.19-3.95,1.22-5.52,4.68-5.98,7.36-1.44,.08-2.26,.62-2.72,1.21-14.7,.59-24.02,4.04-24.43,4.19-.47,.17-.7,.69-.53,1.16,.17,.47,.69,.7,1.16,.53,.1-.04,10.24-3.77,25.68-4.13l1.34,.02,5.99-.06-.02-.02c12.21-.02,17.16,.48,25.04,1.83,8.48,1.45,9.19,6.52,9.19,11.17l.1,5.1c0,5.47-1.96,8.37-5.97,8.87l-37.16,3.97c-3.29,.57-4.32,2.48-5.61,4.9-.17,.32-.36,.66-.55,1.02l-5.19,9.34c-1.77,3.18-5.13,5.16-8.77,5.16-5.53,0-10.03-4.5-10.03-10.03v-20.24c.16-6.73,1.13-9.34,1.84-11.24,.26-.7,.5-1.35,.67-2.08,.11-.49-.2-.97-.68-1.07-.49-.11-.97,.2-1.07,.68-.13,.61-.35,1.18-.59,1.84-.75,2.02-1.79,4.79-1.96,11.85v20.26c0,6.53,5.31,11.83,11.83,11.83,4.29,0,8.26-2.33,10.34-6.09l5.19-9.34c.2-.36,.39-.71,.56-1.04,1.23-2.29,1.9-3.56,4.27-3.97l37.12-3.96c2.01-.25,4.25-1.12,5.77-3.38v18.58c0,3.84-3.26,6.96-7.26,6.96-2.64,0-5.08-1.38-6.36-3.59l-3.87-6.71c-1.19-2.05-3.3-3.6-5.81-4.24-1.97-.5-5.07-1.25-5.07-1.25l-.42,1.75s3.09,.74,5.05,1.24c2.04,.52,3.75,1.76,4.7,3.39l3.87,6.71c1.6,2.77,4.63,4.49,7.92,4.49,5,0,9.06-3.93,9.06-8.76v-26.84s-.02-.07-.02-.1Z"/><path class="d" d="M19.42,27.44c-2.34,0-4.24,1.9-4.24,4.24v1.86h-1.86c-2.34,0-4.24,1.9-4.24,4.24s1.9,4.24,4.24,4.24h1.86v1.86c0,2.34,1.9,4.24,4.24,4.24s4.24-1.9,4.24-4.24v-1.86h1.86c2.34,0,4.24-1.9,4.24-4.24s-1.9-4.24-4.24-4.24h-1.86v-1.86c0-2.34-1.9-4.24-4.24-4.24Zm6.1,7.91c1.35,0,2.44,1.1,2.44,2.44s-1.1,2.44-2.44,2.44h-3.66v3.66c0,1.35-1.1,2.44-2.44,2.44s-2.44-1.1-2.44-2.44v-3.66h-3.66c-1.35,0-2.44-1.1-2.44-2.44s1.1-2.44,2.44-2.44h3.66v-3.66c0-1.35,1.1-2.44,2.44-2.44s2.44,1.1,2.44,2.44v3.66h3.66Z"/><circle class="d" cx="50.22" cy="31.71" r="4.52"/><circle class="d" cx="64.42" cy="31.71" r="4.52"/><path class="d" d="M57.32,20.09c-2.5,0-4.52,2.02-4.52,4.52s2.02,4.52,4.52,4.52,4.52-2.02,4.52-4.52-2.02-4.52-4.52-4.52Zm0,7.24c-1.5,0-2.72-1.22-2.72-2.72s1.22-2.72,2.72-2.72,2.72,1.22,2.72,2.72-1.22,2.72-2.72,2.72Z"/><path class="d" d="M57.32,34.29c-2.5,0-4.52,2.02-4.52,4.52s2.02,4.52,4.52,4.52,4.52-2.02,4.52-4.52-2.02-4.52-4.52-4.52Zm0,7.24c-1.5,0-2.72-1.22-2.72-2.72s1.22-2.72,2.72-2.72,2.72,1.22,2.72,2.72-1.22,2.72-2.72,2.72Z"/></g></g></g></svg>