<?xml version="1.0" encoding="UTF-8"?><svg xmlns="http://www.w3.org/2000/svg" viewBox="0 0 370.05 31.97"><defs><style>.e{fill:#fff;}</style></defs><g id="a"/><g id="b"><g id="c"><path id="d" class="e" d="M276.19,31.97V.01h3.84V31.97h-3.84Zm-32.44,0V.01h7.89l10.24,21.57L272.12,0h4.06l-10.24,21.58h-8.13L247.59,.02V31.97h-3.84Zm-14.88,0L213.99,0h4.55l14.88,31.97h-4.55Zm-34.3,0L209.45,0h4.54l-14.88,31.97h-4.54Zm-11.66,0h-27.98l-3.83-3.85V3.86L154.93,0h26.75V3.86h-26.75V28.12h24.15v-10.21h-9.24v-3.85h13.08v14.06h.01v3.85h-.02Zm-102.65,0l-13.2-13.25-13.21,13.25h-5.42l15.92-15.98L48.44,0h5.42l31.83,31.97h-5.43Zm-51,0V3.86H7.67V0h25.43V31.97h-3.84ZM0,31.97V0H3.84V31.97H0Zm295.04,0V0h29.98V3.86h-26.14V28.12h26.14v3.85h-29.98Zm-193.99,0v-3.85h26.14v-10.2h-26.14v-3.85h29.98V31.97h-29.98Zm239.02,0v-3.85h26.14v-10.2h-22.31l-3.84-3.85V3.87L343.91,.01h24.9V3.87h-24.9V14.07h22.31l3.84,3.85v10.2l-3.84,3.85h-26.14Zm-37.87-14.06v-3.85h21.84v3.85h-21.84ZM69.39,10.93L80.27,0h5.42l-13.59,13.65-2.71-2.72Zm57.81-.72V3.86h-26.14V0h29.98V10.21h-3.83Z"/></g></g></svg>