<?xml version="1.0" encoding="UTF-8"?><svg xmlns="http://www.w3.org/2000/svg" viewBox="0 0 71.09 75.52"><defs><style>.d{fill:#222;}</style></defs><g id="a"/><g id="b"><g id="c"><g><path class="d" d="M41.82,75.52h-12.33c-3.19,0-5.78-2.59-5.78-5.78v-9.98c-6.86-4.17-11.1-11.67-11.1-19.7,0-12.71,10.34-23.04,23.04-23.04s23.04,10.34,23.04,23.04c0,8.03-4.24,15.53-11.1,19.7v9.98c0,3.19-2.59,5.78-5.78,5.78Zm-6.17-56.7c-11.71,0-21.24,9.53-21.24,21.24,0,7.57,4.08,14.62,10.65,18.41l.45,.26v11.01c0,2.19,1.79,3.98,3.98,3.98h12.33c2.19,0,3.98-1.79,3.98-3.98v-11.01l.45-.26c6.57-3.79,10.65-10.84,10.65-18.41,0-11.71-9.53-21.24-21.24-21.24Z"/><rect class="d" x="30.27" y="60.42" width="10.77" height="1.8"/><rect class="d" x="30.27" y="66.55" width="10.77" height="1.8"/><g><rect class="d" x="27.25" y="33.3" width="3.01" height="14.29"/><polygon class="d" points="32.68 33.3 32.68 36.25 41.06 36.25 41.06 47.6 44.07 47.6 44.07 33.3 32.68 33.3"/></g><path class="d" d="M36.78,9.51V1.09c0-1.45-2.25-1.45-2.25,0V9.51c0,1.45,2.25,1.45,2.25,0h0Z"/><path class="d" d="M8.98,24.52l-6.38-3.68-.91-.53c-.53-.3-1.23-.12-1.54,.4s-.12,1.23,.4,1.54l6.38,3.68,.91,.53c.53,.3,1.23,.12,1.54-.4s.12-1.23-.4-1.54h0Z"/><path class="d" d="M7.23,52.65l-3.34,1.93-.48,.28c-.51,.29-.73,1.03-.4,1.54s.99,.72,1.54,.4l3.34-1.93,.48-.28c.51-.29,.73-1.03,.4-1.54s-.99-.72-1.54-.4h0Z"/><path class="d" d="M63.24,26.46l6.38-3.68,.91-.53c.53-.3,.71-1.02,.4-1.54s-1.01-.71-1.54-.4l-6.38,3.68-.91,.53c-.53,.3-.71,1.02-.4,1.54s1.01,.71,1.54,.4h0Z"/><path class="d" d="M62.72,54.59l3.34,1.93,.48,.28c.51,.29,1.25,.14,1.54-.4s.14-1.22-.4-1.54l-3.34-1.93-.48-.28c-.51-.29-1.25-.14-1.54,.4s-.14,1.22,.4,1.54h0Z"/></g></g></g></svg>