<?xml version="1.0" encoding="UTF-8"?><svg xmlns="http://www.w3.org/2000/svg" viewBox="0 0 70.5 68.77"><defs><style>.d{fill:#222;}</style></defs><g id="a"/><g id="b"><g id="c"><g><path class="d" d="M57.65,21.47l-7.53-7.98-13.51,12.75h0L0,60.79l7.53,7.98L44.13,34.23h0l13.51-12.75ZM7.6,66.23l-5.06-5.36L37.36,28.01l5.06,5.36L7.6,66.23Z"/><path class="d" d="M60.78,34.38c-1.67,4.53-1.77,10.59-9.72,12.9,7.86,2.3,8.05,8.37,9.72,12.9,1.67-4.53,1.48-10.43,9.72-12.9-7.73-1.54-8.05-8.37-9.72-12.9Zm-.04,19.72c-.92-2.48-2.34-4.99-5.23-6.81,2.94-1.84,4.35-4.37,5.26-6.87,.91,2.56,2.3,5.22,5.08,6.97-2.9,1.84-4.26,4.3-5.11,6.71Z"/><path class="d" d="M11.96,34.88c1.31-3.56,1.16-8.18,7.63-10.12-6.07-1.21-6.32-6.57-7.63-10.12-1.31,3.56-1.39,8.31-7.63,10.12,6.17,1.81,6.32,6.57,7.63,10.12Zm-.02-14.45c.68,1.63,1.66,3.23,3.31,4.43-1.69,1.23-2.68,2.73-3.33,4.23-.69-1.55-1.71-3.09-3.42-4.32,1.73-1.23,2.75-2.78,3.44-4.34Z"/><path class="d" d="M42.69,11.72c.76-2.06,.67-4.74,4.42-5.86-3.51-.7-3.66-3.8-4.42-5.86-.76,2.06-.8,4.81-4.42,5.86,3.57,1.05,3.66,3.8,4.42,5.86Zm-.03-6.78c.22,.34,.47,.66,.77,.97-.29,.29-.55,.59-.76,.9-.23-.33-.49-.64-.79-.94,.3-.29,.56-.6,.79-.92Z"/></g></g></g></svg>