<?xml version="1.0" encoding="UTF-8"?><svg xmlns="http://www.w3.org/2000/svg" viewBox="0 0 84.33 70.57"><defs><style>.d{fill:#222;}</style></defs><g id="a"/><g id="b"><g id="c"><g><path class="d" d="M57.62,70.57H11.03c-6.07,0-10.48-3.6-10.98-8.97-.14-1.47,0-2.77,.39-3.87,1.54-4.26,4.87-9.27,8.4-14.58,4.17-6.27,8.89-13.38,11.52-20.54,.31-.84,.38-1.1,.55-1.73l.1-.37,1.73,.48-.1,.36c-.18,.64-.27,.97-.6,1.87-2.7,7.36-7.49,14.56-11.71,20.92-3.47,5.22-6.74,10.15-8.21,14.2-.31,.85-.4,1.89-.29,3.09,.41,4.39,4.1,7.34,9.19,7.34H57.62v1.8Z"/><path class="d" d="M26.65,52.17l2.18-4.34c.07-.14,1.73-3.41,5.56-8.01,3.98-4.78,9.33-9.93,18.78-11.9,20.68-4.31,27-7.83,29.4-16.36l1.74-6.18,.03,6.42c0,.17-.1,17.4-15.08,23.41-5.04,2.02-9.21,4.19-12.56,5.92-6.49,3.37-10.78,5.59-13.7,2.46-2.6-2.79-10.27,3.04-12.75,5.3l-3.59,3.28ZM81.68,17.6c-4.41,6.12-13.14,8.95-28.15,12.08-8.91,1.86-13.98,6.75-17.76,11.29-1,1.2-1.85,2.31-2.56,3.3,3.54-2.42,8.41-4.77,11.1-1.9,1.91,2.05,5.1,.52,11.56-2.83,3.38-1.76,7.6-3.94,12.72-6,8.47-3.4,11.8-10.73,13.11-15.94Z"/><path class="d" d="M30.26,45.32l-7.9,12.96c-.23,.38,.17,.83,.58,.65l8.31-3.82c.14-.06,.23-.19,.26-.34l1.3-7.67c.03-.16-.03-.32-.15-.42l-1.71-1.47c-.21-.18-.54-.13-.68,.11Z"/><g><path class="d" d="M69.47,23.23c5.25-14.31-.26-21.02-4.34-22.73-.75-.32-1.97-.57-3.12-.48H18.82C12.72,.02,7.75,4.98,7.75,11.09s4.97,11.07,11.07,11.07H59.08c.68,0,1.26-.44,1.44-1.1,.18-.65-.09-1.31-.66-1.66-2.75-1.66-4.82-5.23-4.82-8.32,0-3.8,2.98-8.67,6.83-9.24,.07-.01,.14-.02,.21-.03h.68c.69,.03,1.34,.2,1.67,.34,3.5,1.47,8.13,7.42,3.35,20.45-.23,.62-.48,1.24-.74,1.86,.78-.25,1.52-.5,2.23-.75,.06-.16,.13-.32,.19-.49Zm-16.24-12.15c0,3.39,1.99,7.13,4.83,9.28H18.82c-5.11,0-9.27-4.16-9.27-9.27S13.71,1.82,18.82,1.82H57.72c-2.76,2.2-4.48,5.99-4.48,9.27Z"/><path class="d" d="M58.29,40.5c-6.93,11.22-12.91,20.92-5.53,28.06,1.28,1.24,3.33,1.94,5.23,1.94,.88,0,1.72-.15,2.45-.47,3.9-1.71,6.42-5.85,6.42-10.53v-.82l-.82-.08c-.1,0-9.67-.9-14.09-2.12,1.36-4.48,4.5-9.57,7.87-15.04,.57-.92,1.13-1.84,1.7-2.76-1.08,.53-2.1,1.05-3.06,1.54-.06,.09-.12,.19-.17,.28Zm6.74,19.81c-.26,3.63-2.29,6.74-5.31,8.07-1.61,.71-4.38,.16-5.7-1.12-2.62-2.54-3.2-5.59-2.51-9.04,3.88,1.06,11.05,1.84,13.52,2.09Z"/></g></g></g></g></svg>