<?xml version="1.0" encoding="UTF-8"?><svg xmlns="http://www.w3.org/2000/svg" viewBox="0 0 72.65 65.3"><defs><style>.d{fill:#222;}</style></defs><g id="a"/><g id="b"><g id="c"><g><path class="d" d="M36.32,65.3L0,24.14,16.54,0H56.1l16.54,24.14-36.32,41.16ZM2.28,24.01L36.32,62.58,70.37,24.01,55.15,1.8H17.49L2.28,24.01Z"/><path class="d" d="M36.32,64.8c-.36,0-.69-.22-.83-.55L18.49,24.45l1.66-.71,16.18,37.86L52.5,23.75l1.66,.71-17.01,39.8c-.14,.33-.47,.55-.83,.55Z"/><path class="d" d="M19.32,25c-.08,0-.16-.01-.24-.03-.36-.1-.62-.41-.66-.78L16.12,.99l1.79-.18,2.07,20.86L35.6,.37l1.45,1.06L20.04,24.63c-.17,.24-.44,.37-.73,.37Z"/><path class="d" d="M53.33,25c-.28,0-.55-.13-.73-.37L35.6,1.43l1.45-1.06,15.62,21.3L54.73,.81l1.79,.18-2.3,23.2c-.04,.37-.3,.68-.66,.78-.08,.02-.16,.03-.24,.03Z"/><rect class="d" x="1.14" y="23.18" width="70.37" height="1.8"/></g></g></g></svg>