<?xml version="1.0" encoding="UTF-8"?><svg xmlns="http://www.w3.org/2000/svg" viewBox="0 0 71.31 67.28"><defs><style>.d{fill:#222;}</style></defs><g id="a"/><g id="b"><g id="c"><g><path class="d" d="M36.42,5.39C27.73-1.98,14.67-1.58,6.47,6.61-2.16,15.23-2.16,29.27,6.47,37.9l.04,.04c.4-.48,.85-.89,1.3-1.25l-.07-.07C-.18,28.7-.18,15.81,7.74,7.88,15.16,.46,26.93,0,34.9,6.45c.34-.51,.94-.77,1.51-1.06Z"/><path class="d" d="M64.84,6.47c-8.63-8.63-22.66-8.63-31.29,0l1.27,1.27c7.92-7.93,20.82-7.93,28.75,0,7.93,7.93,7.93,20.82,0,28.75l-.05,.05c.36,.51,.76,.93,1.25,1.3l.08-.08c8.63-8.63,8.63-22.66,0-31.29Z"/><path class="d" d="M15.41,32.17c1.08,0,2.1,.42,2.87,1.19,1.58,1.58,1.58,4.15,0,5.73l-5.85,5.85c-.77,.77-1.78,1.19-2.87,1.19s-2.1-.42-2.87-1.19c-1.58-1.58-1.58-4.15,0-5.73l5.85-5.85c.77-.77,1.78-1.19,2.87-1.19m0-1.8c-1.5,0-3,.57-4.14,1.71l-5.85,5.85c-2.29,2.29-2.29,5.99,0,8.28,1.14,1.14,2.64,1.71,4.14,1.71s3-.57,4.14-1.71l5.85-5.85c2.29-2.29,2.29-5.99,0-8.28-1.14-1.14-2.64-1.71-4.14-1.71h0Z"/><path class="d" d="M25.14,36.82c1.08,0,2.1,.42,2.87,1.19,1.58,1.58,1.58,4.15,0,5.73l-8.39,8.39c-.77,.77-1.78,1.19-2.87,1.19s-2.1-.42-2.87-1.19-1.19-1.78-1.19-2.87,.42-2.1,1.19-2.87l8.39-8.39c.77-.77,1.78-1.19,2.87-1.19m0-1.8c-1.5,0-3,.57-4.14,1.71l-8.39,8.39c-2.29,2.29-2.29,5.99,0,8.28,1.14,1.14,2.64,1.71,4.14,1.71s3-.57,4.14-1.71l8.39-8.39c2.29-2.29,2.29-5.99,0-8.28-1.14-1.14-2.64-1.71-4.14-1.71h0Z"/><path class="d" d="M30.4,45.95c1.08,0,2.1,.42,2.87,1.19,1.58,1.58,1.58,4.15,0,5.73l-6.46,6.46c-.77,.77-1.78,1.19-2.87,1.19s-2.1-.42-2.87-1.19c-1.58-1.58-1.58-4.15,0-5.73l6.46-6.46c.77-.77,1.78-1.19,2.87-1.19m0-1.8c-1.5,0-3,.57-4.14,1.71l-6.46,6.46c-2.29,2.29-2.29,5.99,0,8.28h0c1.14,1.14,2.64,1.71,4.14,1.71s3-.57,4.14-1.71l6.46-6.46c2.29-2.29,2.29-5.99,0-8.28-1.14-1.14-2.64-1.71-4.14-1.71h0Z"/><path class="d" d="M35.03,55.45c.92,0,1.78,.36,2.43,1,.65,.65,1,1.51,1,2.43s-.36,1.78-1,2.43l-3.17,3.17c-.65,.65-1.51,1-2.43,1s-1.78-.36-2.43-1c-.65-.65-1-1.51-1-2.43s.36-1.78,1-2.43l3.17-3.17c.65-.65,1.51-1,2.43-1m0-1.8c-1.34,0-2.68,.51-3.7,1.53l-3.17,3.17c-2.04,2.04-2.04,5.35,0,7.4,1.02,1.02,2.36,1.53,3.7,1.53s2.68-.51,3.7-1.53l3.17-3.17c2.04-2.04,2.04-5.35,0-7.4-1.02-1.02-2.36-1.53-3.7-1.53h0Z"/><path class="d" d="M44.76,12l-12.61,12.61c-.95,.95-2.21,1.47-3.56,1.47-1.34,0-2.61-.52-3.56-1.47-1.96-1.96-1.96-5.15,0-7.12l11.01-11.01-1.27-1.27-11.01,11.01c-2.67,2.67-2.67,6.99,0,9.66,1.33,1.33,3.08,2,4.83,2,1.75,0,3.5-.67,4.83-2l12.61-12.61-1.27-1.27Z"/><path class="d" d="M41.82,15.94l25.37,25.37c1.58,1.58,1.58,4.15,0,5.73-.77,.77-1.78,1.19-2.87,1.19-1.07,0-2.08-.42-2.85-1.17l-15.69-15.69-1.27,1.27,15.67,15.67s.02,.02,.03,.03l2.51,2.51c.77,.77,1.19,1.78,1.19,2.87,0,1.08-.42,2.1-1.19,2.87s-1.78,1.19-2.87,1.19c-1.08,0-2.1-.42-2.87-1.19l-1.9-1.9s-.02-.02-.03-.04l-16.28-16.28-1.27,1.27,16.3,16.3c.75,.76,1.17,1.77,1.17,2.85,0,1.08-.42,2.1-1.19,2.87-.77,.77-1.78,1.19-2.87,1.19-1.08,0-2.1-.42-2.87-1.19l-4.5-4.5s-.02-.02-.03-.03l-7.79-7.79-.55,2,7.09,7.09c1.56,1.58,1.56,4.14-.01,5.71-.77,.77-1.78,1.19-2.87,1.19-1.08,0-2.1-.42-2.87-1.19l-.53-.53c-.48,.37-.98,.71-1.35,1.2l.61,.61c1.14,1.14,2.64,1.71,4.14,1.71,1.5,0,3-.57,4.14-1.71s1.68-2.56,1.71-4.02l1.55,1.55c1.14,1.14,2.64,1.71,4.14,1.71,1.5,0,3-.57,4.14-1.71h0c1.17-1.17,1.74-2.71,1.71-4.24,.94,.59,2.01,.89,3.09,.89,1.5,0,3-.57,4.14-1.71,2.14-2.14,2.28-5.54,.4-7.83,1.47-.02,2.94-.59,4.06-1.71h0c2.29-2.29,2.29-5.99,0-8.28L43.09,14.67l-1.27,1.27Z"/></g></g></g></svg>