<?xml version="1.0" encoding="UTF-8"?><svg xmlns="http://www.w3.org/2000/svg" viewBox="0 0 62.62 68.77"><defs><style>.d{fill:#222;}</style></defs><g id="a"/><g id="b"><g id="c"><g><polygon class="d" points="10.32 36.55 12.14 37.6 15 36.01 13.18 34.96 10.32 36.55"/><path class="d" d="M31.31,0L0,17.42V50.74l31.31,18.03,31.31-18.03V17.42L31.31,0Zm29.51,49.7l-29.51,16.99L1.8,49.7v-6.22l29.51,16.99,29.51-16.99v6.22Zm0-8.41l-4.09-2.27-1.82,1.05,4.19,2.33-27.79,16L3.52,42.4l4.19-2.33-1.82-1.05-4.09,2.27v-6.1l29.51,16.99,29.51-16.99v6.1Zm0-8.29l-4.09-2.27-1.82,1.05,4.19,2.33-27.79,16L3.52,34.11l4.19-2.33-1.82-1.05-4.09,2.27v-6.1l29.51,16.99,29.51-16.99v6.1ZM3.52,25.82L31.31,10.35l27.79,15.46-27.79,16L3.52,25.82Zm57.3-1.1L31.31,8.29,1.8,24.71v-6.23L31.31,2.06l29.51,16.42v6.23Z"/><polygon class="d" points="50.48 29.31 52.3 28.26 31.31 16.58 10.32 28.26 12.14 29.31 31.31 18.64 50.48 29.31"/><polygon class="d" points="43.18 33.54 45 32.5 31.31 24.88 17.62 32.5 19.44 33.54 31.31 26.94 43.18 33.54"/><polygon class="d" points="52.3 36.55 49.44 34.96 47.62 36.01 50.48 37.6 52.3 36.55"/></g></g></g></svg>